# xmcd
#
# Track frame offsets: 
#        150
#        16049
#        32728
#        56663
#        74657
#        86753
#        105875
#        121229
#        137934
#        155834
#        171062
#        189027
#        205872
#        220378
#        236843
#        251877
#
# Disc length: 3600 seconds
#
# Revision: 0
# Processed by: cddbd v1.5.2PL0 Copyright (c) Steve Scherf et al.
# Submitted via: ExactAudioCopyFreeDBPlugin 1.0
#
DISCID=e30e0e10
DTITLE=Various Artist - In Ya Mellow Tone 2.5
DYEAR=2009
DGENRE=
TTITLE0=Bee - Anymore
TTITLE1=Emskee - From The Heart -Valentin Remix-
TTITLE2=CL - Bozack -JFK Remix-
TTITLE3=Move. Meant feat. Mike James - Myself In You
TTITLE4=Incise - Nothing To Do
TTITLE5=Inherit feat. The 49ers - Traveling Man
TTITLE6=ArtOfficial - Skunk Ape
TTITLE7=The Antidotes - Speed It Down
TTITLE8=The Connection - Hibernation Remix
TTITLE9=Jazz Addixx - 1200 Jazz
TTITLE10=The Poems - Way Back When
TTITLE11=The 49ers - I Don't Want No
TTITLE12=Awon - Rain Drops
TTITLE13=Mark-J - Intercession
TTITLE14=Soulution feat. Project Move - Anthem
TTITLE15=Archetype - Best Song
EXTD=
EXTT0=
EXTT1=
EXTT2=
EXTT3=
EXTT4=
EXTT5=
EXTT6=
EXTT7=
EXTT8=
EXTT9=
EXTT10=
EXTT11=
EXTT12=
EXTT13=
EXTT14=
EXTT15=
PLAYORDER=
